<svg xmlns="http://www.w3.org/2000/svg" viewBox="0 0 864.13 139.79"><defs><style>.cls-1{fill:#fff;}</style></defs><title>Asset 2</title><g id="Layer_2" data-name="Layer 2"><g id="Layer_1-2" data-name="Layer 1"><path class="cls-1" d="M84.06,138V92.23H20V138H0v-88C0,18.88,17.43,0,52.1,0S104,18.88,104,49.93v88ZM20,74.07H84.06V50.47c0-21.6-10.72-32.32-32-32.32C30.68,18.15,20,28.87,20,50.47Z"/><path class="cls-1" d="M234.55,49.93v3.63H215.13V49c0-20.52-10.17-30.87-30.68-30.87s-30.87,10.9-30.87,32.5V90.23c0,20.88,10.35,31.41,30.87,31.41,21.05,0,30.68-11.26,30.68-30V86.05h19.42v3.82c0,31-16.88,49.92-50.29,49.92-33.95,0-50.65-18.88-50.65-49.92V49.93c0-31,16.89-49.93,50.84-49.93C217.85,0,234.55,18.88,234.55,49.93Z"/><path class="cls-1" d="M309.16,77.16H283.93V138H264.14V1.82h19.79V59h24.5L347.29,1.82h23l-44.48,65L372.52,138H349.46Z"/><path class="cls-1" d="M414.63,1.82v118h60.46V138H394.84V1.82Z"/><path class="cls-1" d="M578.2,138V92.23H514.12V138h-20v-88c0-31,17.42-49.93,52.1-49.93s51.92,18.88,51.92,49.93v88ZM514.12,74.07H578.2V50.47c0-21.6-10.71-32.32-32-32.32-21.42,0-32.13,10.72-32.13,32.32Z"/><path class="cls-1" d="M646.82,138H627.76V1.82H649l65.36,105.84c-.91-25.6-1.27-51-1.27-76.43V1.82h19.06V138H710.91L644.83,30.68c1.27,31.59,2,61,2,88.23Z"/><path class="cls-1" d="M761.74,138V1.82h51c34.13,0,51.38,18.15,51.38,48.11V89.87c0,29.95-17.25,48.11-51.38,48.11Zm19.79-18.16h31c21.24,0,31.77-10.53,31.77-31.59V51.56C844.34,30.5,833.81,20,812.57,20h-31Z"/></g></g></svg>